<?xml version="1.0" encoding="UTF-8" standalone="no"?>
<svg width="80px" height="80px" viewBox="0 0 80 80" version="1.1" xmlns="http://www.w3.org/2000/svg" xmlns:xlink="http://www.w3.org/1999/xlink">
    <!-- Generator: Sketch 39.1 (31720) - http://www.bohemiancoding.com/sketch -->
    <title>logo</title>
    <desc>Created with Sketch.</desc>
    <defs>
        <filter x="-50%" y="-50%" width="200%" height="200%" filterUnits="objectBoundingBox" id="filter-1">
            <feOffset dx="0" dy="2" in="SourceAlpha" result="shadowOffsetOuter1"></feOffset>
            <feGaussianBlur stdDeviation="5" in="shadowOffsetOuter1" result="shadowBlurOuter1"></feGaussianBlur>
            <feColorMatrix values="0 0 0 0 0   0 0 0 0 0   0 0 0 0 0  0 0 0 0.05 0" type="matrix" in="shadowBlurOuter1" result="shadowMatrixOuter1"></feColorMatrix>
            <feMerge>
                <feMergeNode in="shadowMatrixOuter1"></feMergeNode>
                <feMergeNode in="SourceGraphic"></feMergeNode>
            </feMerge>
        </filter>
    </defs>
    <g id="Page-1" stroke="none" stroke-width="1" fill="none" fill-rule="evenodd">
        <g id="logo">
            <g transform="translate(2.000000, 2.000000)">
                <g id="Color-background" fill="#7B1AD9">
                    <rect id="round-shape" x="0" y="0" width="76" height="76" rx="17"></rect>
                </g>
                <g id="Glyph" filter="url(#filter-1)" transform="translate(12.423077, 13.884615)">
                    <path d="M30.4487179,7.61217949 L30.4487179,11.6923077 L35.0769231,11.6923077 L35.0769231,7.61217949 L30.4487179,7.61217949 Z M26.0641026,7.61217949 L26.0641026,11.6923077 L26.0027389,11.6923077 L20.4640572,11.6923077 L21.6820059,15.5897436 L26.0027389,15.5897436 L43.8473525,15.5897436 L43.8473525,27.7692308 L25.976572,27.7692308 L21.6794872,27.7692308 L20.4615385,31.6666667 L25.3104761,31.6666667 C23.8904689,33.8215423 21.1208904,36.6474009 18.5599463,38.7828933 C16.4180594,37.3861088 14.4806052,35.751966 13.2230431,34.1705301 C12.7938757,33.6308345 11.9795953,32.555766 11.4329366,31.7120786 C11.609807,30.5867032 11.7433447,29.3416872 11.8109029,28.1278836 C11.8726509,27.0184715 11.8966813,26.1077179 11.8896782,25.3735246 C11.888515,25.2515714 11.8879194,25.0929408 11.887829,24.9073678 C11.887743,24.730636 11.8881125,24.540541 11.8887819,24.3515238 C11.8891437,24.2493441 11.8895047,24.1707088 11.8897427,24.1265416 L11.8897728,11.7022689 L7.74874712,11.7022689 L7.74874712,24.1153846 C7.74852622,24.1507986 7.74815377,24.2319357 7.7477822,24.336859 C7.74709463,24.5310116 7.74671479,24.7264185 7.7468039,24.9093845 C7.74689984,25.1063832 7.74753837,25.2764609 7.74884095,25.4130218 C7.75493814,26.0522431 7.73325484,26.8740409 7.67627655,27.8977574 C7.55432468,30.0888402 7.24101804,32.5306568 6.88688153,33.5045323 C6.38912325,34.8733675 5.88664298,35.8050264 5.32210288,36.6933218 C4.32631413,38.2601806 2.65864138,39.9067407 0.216174003,41.8776323 C0.216174003,41.8776323 1.30927912,43.2050527 1.77363782,43.8880803 C2.23624039,44.5685248 3.08441945,45.9302259 3.08441945,45.9302259 C6.72851249,42.7094414 7.5297407,40.9959795 8.80479394,38.9897023 C9.29145258,38.2239522 9.69543761,37.392549 10.0784582,36.4662759 C11.4177045,38.211416 14.1040953,41.5318249 15.7913158,43.1524877 C16.4612304,43.7959754 17.1400693,44.4167162 17.8272285,45.0120839 L17.82844,45.0107406 L17.8288543,45.0112704 C19.4591591,43.8281396 21.0837716,42.1565433 22.6207807,40.6345281 C23.6804097,39.5852363 24.9962885,38.0386588 26.0641026,36.5465531 L26.0641026,46.525641 L30.4487179,46.525641 L30.4487179,31.6666667 L35.0769231,31.6666667 L35.0769231,46.525641 L39.4615385,46.525641 L39.4615385,36.6256708 C40.5802799,38.1913834 41.8007061,39.7795739 42.8939771,40.7697627 C44.5837025,42.3001676 45.5352249,43.239796 47.4385672,44.565802 C47.4385672,44.565802 48.0452954,43.2329534 48.463,42.5449467 C48.8621227,41.8875464 49.9298908,40.6919162 49.9298908,40.6919162 C48.3817025,39.7478755 46.7944541,38.9434197 45.4558917,37.7529608 C43.6514872,36.1482022 42.4984687,35.027771 41.2487353,33.3113313 C40.9911529,32.957556 40.5485657,32.2693485 40.1688225,31.6666667 L44.3346736,31.6666667 C46.2187024,31.6666667 47.7447887,30.1393777 47.7447887,28.2557489 L47.7447887,15.1032254 C47.7447887,13.2194895 46.2166347,11.6923077 44.3325816,11.6923077 L39.4615385,11.6923077 L39.4615385,7.61217949 L46.4647436,7.61217949 L47.6826923,3.71474359 L40.394258,3.71474359 L42.5987262,0.302761852 C42.5987262,0.302761852 40.9303847,0.495570038 40.1323021,0.482302935 C39.3300963,0.468967288 37.797861,0.222953601 37.797861,0.222953601 L35.4828615,3.71474359 L30.1009992,3.71474359 L27.8687243,0.23163624 C27.8687243,0.23163624 26.5117281,0.468247035 25.7319618,0.481529834 C24.8961223,0.495767801 22.970941,0.23163624 22.970941,0.23163624 L25.1924022,3.71474359 L19.9134615,3.71474359 L21.1314103,7.61217949 L26.0641026,7.61217949 Z M5.11538462,24.6651267 L5.11538462,7.55128205 C5.11538462,7.55128205 14.6153846,7.55128205 14.6153846,7.55128205 C14.6153844,7.55128205 14.6153846,24.6912936 14.6153846,24.6912936 L14.6153846,31.6678656 L18.5128205,31.6678656 L18.5128205,24.6912936 L18.5128205,6.33319197 C18.5128205,4.44916325 16.9855316,2.92307692 15.1019028,2.92307692 L4.62886647,2.92307692 C2.74513055,2.92307692 1.21794872,4.45123086 1.21794872,6.33528401 L1.21794872,24.6651267 L1.21794872,31.6653469 L5.11538462,31.6653469 L5.11538462,24.6651267 Z" id="Combined-Shape" fill="#FFFFFF"></path>
                    <path d="M18.5128205,14.1840294 L26.0641026,19.471494 L26.0641026,15.5897436 L30.4487179,15.5897436 L30.4487179,19.7307692 L35.0769231,19.7307692 L35.0769231,15.5897436 L39.4615385,15.5897436 L39.4615385,19.7307692 L48.9615385,19.7307692 L48.9615385,23.6282051 L39.4615385,23.6282051 L39.4615385,27.7692308 L35.0769231,27.7692308 L35.0769231,23.6282051 L30.4487179,23.6282051 L30.4487179,27.7692308 L26.0641026,27.7692308 L26.0641026,23.8874804 L18.5128205,29.174945 L18.5128205,25.0117906 L23.271843,21.6794872 L18.5128205,18.3471837 L18.5128205,14.1840294 Z" id="Combined-Shape" fill="#FFF100"></path>
                </g>
            </g>
        </g>
    </g>
</svg>