<?xml version="1.0" encoding="UTF-8" standalone="no"?>
<svg width="30px" height="30px" viewBox="0 0 30 30" version="1.1" xmlns="http://www.w3.org/2000/svg" xmlns:xlink="http://www.w3.org/1999/xlink">
    <!-- Generator: Sketch 39.1 (31720) - http://www.bohemiancoding.com/sketch -->
    <title>信心</title>
    <desc>Created with Sketch.</desc>
    <defs></defs>
    <g id="Page-1" stroke="none" stroke-width="1" fill="none" fill-rule="evenodd">
        <g id="信心" fill="#657882">
            <g id="Group-3-Copy-7" transform="translate(7.000000, 6.000000)">
                <g id="Group">
                    <path d="M14.8451765,11.8885263 C14.6625882,11.6403158 14.4574118,11.3428421 14.2277647,10.9913684 C14.0235294,10.6853684 13.8230588,10.3301053 13.6301176,9.93221053 C13.4475294,9.55705263 13.2865882,9.15157895 13.152,8.72431579 C13.0447059,8.37852632 12.9882353,8.01378947 12.9882353,7.64052632 C12.9882353,6.97736842 12.8912941,6.35873684 12.7002353,5.80168421 C12.512,5.25221053 12.2541176,4.752 11.9350588,4.30957895 C11.6018824,3.85673684 11.2037647,3.47305263 10.7576471,3.16894737 C10.5750588,3.04294737 10.3830588,2.92926316 10.1778824,2.826 C10.1788235,2.80515789 10.1788235,2.78336842 10.1788235,2.76157895 C10.1788235,1.41347368 9.07105882,0.315473684 7.71105882,0.315473684 C6.352,0.315473684 5.24517647,1.41252632 5.24517647,2.76157895 L5.24517647,2.80515789 C5.01647059,2.92168421 4.78964706,3.05905263 4.56564706,3.21631579 C4.13835294,3.51947368 3.76,3.888 3.43811765,4.31431579 C3.10776471,4.75484211 2.84611765,5.25126316 2.66352941,5.78557895 C2.46117647,6.35210526 2.35858824,6.98115789 2.35858824,7.65757895 C2.35858824,8.03747368 2.304,8.40505263 2.20047059,8.74231579 C2.06023529,9.17431579 1.89929412,9.576 1.71764706,9.94642105 C1.55670588,10.2884211 1.36188235,10.6427368 1.12752941,11.0245263 C0.872470588,11.4271579 0.652235294,11.7909474 0.516705882,12.0410526 C-0.106352941,12.9988421 0.277647059,13.8116842 0.405647059,14.0314737 C0.744470588,14.6273684 1.344,14.9826316 2.00847059,14.9826316 L13.3421176,14.9826316 C13.7298824,14.9826316 14.048,14.8253684 14.2409412,14.7135789 C14.5007059,14.5714737 14.7341176,14.3507368 14.9129412,14.0788421 C15.1049412,13.7917895 15.2122353,13.4573684 15.2272941,13.1210526 C15.2536471,12.6757895 15.1190588,12.2466316 14.8451765,11.8885263 L14.8451765,11.8885263 Z M13.9548235,13.4535789 C13.8785882,13.5701053 13.7807059,13.6657895 13.6762353,13.7226316 C13.5858824,13.7747368 13.4541176,13.8438947 13.3421176,13.8438947 L2.00847059,13.8438947 C1.75529412,13.8438947 1.54070588,13.7112632 1.40047059,13.4649474 C1.35058824,13.3806316 1.20941176,13.0708421 1.50211765,12.6189474 C1.64988235,12.348 1.85788235,12.006 2.10164706,11.6213684 C2.36235294,11.1978947 2.576,10.8075789 2.752,10.4352632 C2.95341176,10.0250526 3.13411765,9.57221053 3.29317647,9.08336842 C3.43435294,8.63052632 3.50588235,8.15021053 3.50588235,7.65757895 C3.50588235,7.11094737 3.58588235,6.60884211 3.74588235,6.15884211 C3.89270588,5.73063158 4.09882353,5.33842105 4.35576471,4.99452632 C4.60611765,4.66389474 4.90070588,4.37684211 5.23011765,4.14378947 C5.50776471,3.94863158 5.792,3.79231579 6.07435294,3.67768421 L6.50164706,3.50336842 L6.42070588,3.05052632 C6.40282353,2.95484211 6.39058824,2.86010526 6.39058824,2.76157895 C6.39058824,2.03968421 6.98258824,1.45326316 7.71011765,1.45326316 C8.43952941,1.45326316 9.03247059,2.04063158 9.03247059,2.76157895 C9.03247059,2.85821053 9.02117647,2.94726316 8.99952941,3.03347368 L8.88282353,3.50810526 L9.33835294,3.69473684 C9.62352941,3.81221053 9.87294118,3.94484211 10.1054118,4.10589474 C10.4470588,4.33894737 10.7529412,4.63357895 11.0070588,4.97842105 C11.2583529,5.32515789 11.4625882,5.72589474 11.6150588,6.16831579 C11.7656471,6.60694737 11.8418824,7.10242105 11.8418824,7.64147368 C11.8418824,8.12936842 11.9143529,8.60778947 12.0574118,9.06252632 C12.2070588,9.54284211 12.3896471,10.0032632 12.5967059,10.4276842 C12.8112941,10.8691579 13.0371765,11.2708421 13.2668235,11.6147368 C13.5068235,11.9823158 13.7242353,12.2958947 13.9237647,12.5668421 C14.0367059,12.7146316 14.0922353,12.8823158 14.0809412,13.0623158 C14.0771765,13.2015789 14.0329412,13.3361053 13.9548235,13.4535789 L13.9548235,13.4535789 Z" id="Shape"></path>
                    <rect id="Rectangle-path" x="4.87717647" y="16.2312632" width="5.64705882" height="1.13684211"></rect>
                </g>
            </g>
        </g>
    </g>
</svg>