<?xml version="1.0" encoding="UTF-8" standalone="no"?>
<svg width="30px" height="30px" viewBox="0 0 30 30" version="1.1" xmlns="http://www.w3.org/2000/svg" xmlns:xlink="http://www.w3.org/1999/xlink">
    <!-- Generator: Sketch 39.1 (31720) - http://www.bohemiancoding.com/sketch -->
    <title>关闭后台</title>
    <desc>Created with Sketch.</desc>
    <defs></defs>
    <g id="Page-1" stroke="none" stroke-width="1" fill="none" fill-rule="evenodd">
        <g id="关闭后台" fill="#737F8C">
            <g id="群组" transform="translate(6.000000, 6.000000)">
                <path d="M11.917,2.22656384 C14.784,3.35212796 16.813,6.0781491 16.813,9.26061125 C16.813,13.4443302 13.308,16.8482148 9,16.8482148 C4.692,16.8482148 1.187,13.4443302 1.187,9.26061125 C1.187,6.0781491 3.217,3.35212796 6.083,2.22656384 L6.083,1 C2.549,2.17994859 0,5.43233362 0,9.2596401 C0,14.0784919 4.038,18 9,18 C13.962,18 18,14.0784919 18,9.2596401 C18.001,5.43330477 15.451,2.17994859 11.917,1 L11.917,2.22656384 Z" id="Shape"></path>
                <rect id="Rectangle-path" x="8" y="0" width="2" height="10"></rect>
            </g>
        </g>
    </g>
</svg>