<?xml version="1.0" encoding="UTF-8" standalone="no"?>
<svg width="110px" height="110px" viewBox="0 0 110 110" version="1.1" xmlns="http://www.w3.org/2000/svg" xmlns:xlink="http://www.w3.org/1999/xlink">
    <!-- Generator: Sketch 39.1 (31720) - http://www.bohemiancoding.com/sketch -->
    <title>大头像</title>
    <desc>Created with Sketch.</desc>
    <defs></defs>
    <g id="Page-1" stroke="none" stroke-width="1" fill="none" fill-rule="evenodd">
        <g id="大头像">
            <g id="datouxiang" transform="translate(5.000000, 5.000000)">
                <path d="M99.8202607,50.1407214 C99.8202607,77.6656383 77.5134249,99.9746084 49.9964412,99.9746084 C22.4794574,99.9746084 0.172621564,77.6656383 0.172621564,50.1407214 C0.172621564,22.6181775 22.4794574,0.306834362 49.9964412,0.306834362 C77.5134249,0.306834362 99.8202607,22.6181775 99.8202607,50.1407214" id="Fill-6" fill="#F8F8F8"></path>
                <path d="M48.7095631,61.3476507 C59.8131572,61.3476507 68.8146606,52.5246796 68.8146606,41.6419079 C68.8146606,30.7615093 59.8131572,21.9409112 48.7095631,21.9409112 C37.605969,21.9409112 28.602093,30.7615093 28.602093,41.6419079 C28.602093,52.5246796 37.605969,61.3476507 48.7095631,61.3476507" id="Fill-8" fill="#C1C1C1"></path>
                <path d="M49.9871882,99.9746084 C62.6946347,99.9746084 74.2846042,94.6922164 83.1793423,86.9584718 C80.4841109,75.7221168 70.2132864,66.7781206 57.9257834,66.7781206 L41.1683721,66.7781206 C29.1181254,66.7781206 19.0110078,75.4017561 16.0808926,86.3106312 C25.0657881,94.4240626 36.9309749,99.9746084 49.9871882,99.9746084" id="Fill-10" fill="#C1C1C1"></path>
            </g>
        </g>
    </g>
</svg>