<?xml version="1.0" encoding="UTF-8" standalone="no"?>
<svg width="60px" height="60px" viewBox="0 0 60 60" version="1.1" xmlns="http://www.w3.org/2000/svg" xmlns:xlink="http://www.w3.org/1999/xlink">
    <!-- Generator: Sketch 39.1 (31720) - http://www.bohemiancoding.com/sketch -->
    <title>小头像</title>
    <desc>Created with Sketch.</desc>
    <defs></defs>
    <g id="Page-1" stroke="none" stroke-width="1" fill="none" fill-rule="evenodd">
        <g id="小头像">
            <g id="xiaotouxiang" transform="translate(5.000000, 5.000000)">
                <path d="M49.4168605,25.0703607 C49.4168605,38.8328192 38.4843023,49.9873042 24.9982558,49.9873042 C11.5122093,49.9873042 0.579651163,38.8328192 0.579651163,25.0703607 C0.579651163,11.3090888 11.5122093,0.153417181 24.9982558,0.153417181 C38.4843023,0.153417181 49.4168605,11.3090888 49.4168605,25.0703607" id="Fill-6" fill="#F9F9F9"></path>
                <path d="M24.3675581,30.6738253 C29.8094186,30.6738253 34.2210465,26.2623398 34.2210465,20.820954 C34.2210465,15.3807546 29.8094186,10.9704556 24.3675581,10.9704556 C18.9256977,10.9704556 14.512907,15.3807546 14.512907,20.820954 C14.512907,26.2623398 18.9256977,30.6738253 24.3675581,30.6738253" id="Fill-8" fill="#C1C1C1"></path>
                <path d="M24.9937209,49.9873042 C31.2216279,49.9873042 36.9018605,47.3461082 41.2611628,43.4792359 C39.9402326,37.8610584 34.9065116,33.3890603 28.8844186,33.3890603 L20.6716279,33.3890603 C14.765814,33.3890603 9.81232558,37.700878 8.37627907,43.1553156 C12.7797674,47.2120313 18.5948837,49.9873042 24.9937209,49.9873042" id="Fill-10" fill="#C1C1C1"></path>
            </g>
        </g>
    </g>
</svg>