<?xml version="1.0" encoding="UTF-8" standalone="no"?>
<svg width="30px" height="30px" viewBox="0 0 30 30" version="1.1" xmlns="http://www.w3.org/2000/svg" xmlns:xlink="http://www.w3.org/1999/xlink">
    <!-- Generator: Sketch 39.1 (31720) - http://www.bohemiancoding.com/sketch -->
    <title>意见反馈</title>
    <desc>Created with Sketch.</desc>
    <defs></defs>
    <g id="Page-1" stroke="none" stroke-width="1" fill="none" fill-rule="evenodd">
        <g id="意见反馈" fill="#657882">
            <path d="M21.176,23 L8.824,23 C7.81777778,23 7,22.1822222 7,21.1768889 L7,8.82311111 C7,7.81777778 7.81777778,7 8.824,7 L17.0933333,7 L17.0933333,7.88888889 L8.824,7.88888889 C8.30844444,7.88888889 7.88888889,8.30844444 7.88888889,8.82311111 L7.88888889,21.176 C7.88888889,21.6915556 8.30844444,22.1111111 8.824,22.1111111 L21.176,22.1111111 C21.6915556,22.1111111 22.1111111,21.6915556 22.1111111,21.1768889 L22.1111111,13.8888889 L23,13.8888889 L23,21.176 C23,22.1822222 22.1822222,23 21.176,23 L21.176,23 Z M22.7395556,9.77511111 L14.8977778,17.616 L12.2257778,18.3422222 C12.184,18.3528889 12.1422222,18.3582222 12.1013333,18.3573333 C11.9768889,18.3582222 11.8604444,18.3102222 11.7706667,18.2248889 C11.6524444,18.1031111 11.6071111,17.9315556 11.6506667,17.7697778 L12.3831111,15.1031111 L20.2248889,7.26133333 C20.5724444,6.91377778 21.1342222,6.91377778 21.4817778,7.26133333 L22.7386667,8.51911111 C23.0871111,8.86577778 23.0871111,9.42755556 22.7395556,9.77511111 L22.7395556,9.77511111 Z M20.5395556,8.20355556 L19.7075556,9.03555556 L20.9653333,10.2924444 L21.7964444,9.46133333 C21.9697778,9.288 21.9697778,9.00622222 21.7964444,8.83288889 L21.168,8.20444444 C20.9946667,8.02933333 20.7137778,8.02933333 20.5395556,8.20355556 L20.5395556,8.20355556 Z M14.8826667,16.3751111 L20.3377778,10.92 L19.08,9.66311111 L13.6248889,15.1182222 C13.4515556,15.2915556 13.4515556,15.5733333 13.6257778,15.7466667 L14.2542222,16.3751111 C14.4275556,16.5484444 14.7093333,16.5484444 14.8826667,16.3751111 L14.8826667,16.3751111 Z" id="Shape"></path>
        </g>
    </g>
</svg>