<?xml version="1.0" encoding="UTF-8" standalone="no"?>
<svg width="30px" height="30px" viewBox="0 0 30 30" version="1.1" xmlns="http://www.w3.org/2000/svg" xmlns:xlink="http://www.w3.org/1999/xlink">
    <!-- Generator: Sketch 39.1 (31720) - http://www.bohemiancoding.com/sketch -->
    <title>搜索</title>
    <desc>Created with Sketch.</desc>
    <defs></defs>
    <g id="Page-1" stroke="none" stroke-width="1" fill="none" fill-rule="evenodd">
        <g id="搜索" fill="#9B9B9B">
            <path d="M19.8746065,19.2517175 L17.4491394,16.7736624 C17.4090536,16.732716 17.3629777,16.7017203 17.3138853,16.6803893 C17.8349731,15.9811845 18.1443377,15.1082866 18.1443377,14.1614021 C18.1443377,11.8628304 16.3212167,10 14.0721188,10 C11.8230639,10 10,11.8628304 10,14.1614021 C10,16.4599595 11.8230639,18.3228043 14.072176,18.3228043 C15.1043873,18.3228043 16.0468629,17.9303683 16.7646202,17.2835474 C16.7844344,17.32325 16.8105674,17.3605506 16.8430764,17.3937909 L19.2679717,19.8717889 C19.435163,20.042737 19.7068434,20.042737 19.8746065,19.8717889 C20.0417978,19.7008979 20.0417978,19.4226085 19.8746065,19.2517175 L19.8746065,19.2517175 Z M14.072176,17.666047 C12.1783471,17.666047 10.6426464,16.0968466 10.6426464,14.1614021 C10.6426464,12.2253429 12.1783471,10.6567572 14.072176,10.6567572 C15.9660478,10.6567572 17.5016342,12.2253429 17.5016342,14.1614021 C17.5016342,16.0968466 15.9660478,17.666047 14.072176,17.666047 L14.072176,17.666047 Z" id="iconfont-sousuo-(1)"></path>
        </g>
    </g>
</svg>