<?xml version="1.0" encoding="UTF-8" standalone="no"?>
<svg width="30px" height="30px" viewBox="0 0 30 30" version="1.1" xmlns="http://www.w3.org/2000/svg" xmlns:xlink="http://www.w3.org/1999/xlink">
    <!-- Generator: Sketch 39.1 (31720) - http://www.bohemiancoding.com/sketch -->
    <title>日历</title>
    <desc>Created with Sketch.</desc>
    <defs>
        <polygon id="path-1" points="2.06350769 4.4408921e-15 0.333046154 4.4408921e-15 0.333046154 3.1195 2.06350769 3.1195 2.06350769 0"></polygon>
        <polygon id="path-3" points="2.56344615 4.4408921e-15 0.830523077 4.4408921e-15 0.830523077 3.1195 2.56344615 3.1195 2.56344615 0"></polygon>
        <polygon id="path-5" points="0 14 0 0.194 12 0.194 15.2030769 0.194 15.2030769 14"></polygon>
    </defs>
    <g id="Page-1" stroke="none" stroke-width="1" fill="none" fill-rule="evenodd">
        <g id="日历">
            <g id="Page-1-Copy-4" transform="translate(7.000000, 7.000000)">
                <g id="Group-3" transform="translate(2.461538, 0.000000)">
                    <mask id="mask-2" fill="white">
                        <use xlink:href="#path-1"></use>
                    </mask>
                    <g id="Clip-2"></g>
                    <path d="M0.638276923,3.1195 L1.75827692,3.1195 C1.92689231,3.1195 2.06350769,2.98075 2.06350769,2.8095 L2.06350769,0.30825 C2.06350769,0.1395 1.92689231,-0.0005 1.75827692,-0.0005 L0.638276923,-0.0005 C0.468430769,-0.0005 0.333046154,0.1395 0.333046154,0.30825 L0.333046154,2.8095 C0.333046154,2.98075 0.468430769,3.1195 0.638276923,3.1195" id="Fill-1" fill="#9B9B9B" mask="url(#mask-2)"></path>
                </g>
                <g id="Group-6" transform="translate(9.846154, 0.000000)">
                    <mask id="mask-4" fill="white">
                        <use xlink:href="#path-3"></use>
                    </mask>
                    <g id="Clip-5"></g>
                    <path d="M1.13821538,3.1195 L2.25575385,3.1195 C2.42683077,3.1195 2.56344615,2.98075 2.56344615,2.8095 L2.56344615,0.30825 C2.56344615,0.1395 2.42683077,-0.0005 2.25575385,-0.0005 L1.13821538,-0.0005 C0.9696,-0.0005 0.830523077,0.1395 0.830523077,0.30825 L0.830523077,2.8095 C0.830523077,2.98075 0.9696,3.1195 1.13821538,3.1195" id="Fill-4" fill="#9B9B9B" mask="url(#mask-4)"></path>
                </g>
                <g id="Group-9" transform="translate(0.000000, 1.000000)">
                    <mask id="mask-6" fill="white">
                        <use xlink:href="#path-5"></use>
                    </mask>
                    <g id="Clip-8"></g>
                    <path d="M14.0756923,12.19025 C14.0756923,12.5565 13.7827692,12.85525 13.4196923,12.85525 L1.78030769,12.85525 C1.41969231,12.85525 1.128,12.5565 1.128,12.19025 L1.128,5.35775 L14.0756923,5.35775 L14.0756923,12.19025 Z M13.4196923,0.194 L13.0270769,0.194 L13.0270769,1.81025 C13.0270769,2.3265 12.6123077,2.75025 12.1015385,2.75025 L10.984,2.75025 C10.4744615,2.75025 10.0584615,2.3265 10.0584615,1.81025 L10.0584615,0.194 L5.14276923,0.194 L5.14276923,1.81025 C5.14276923,2.3265 4.72923077,2.75025 4.21969231,2.75025 L3.09969231,2.75025 C2.59015385,2.75025 2.17538462,2.3265 2.17538462,1.81025 L2.17538462,0.194 L1.78030769,0.194 C0.799384615,0.194 -0.000615384615,1.004 -0.000615384615,2.00275 L-0.000615384615,5.35775 L-0.000615384615,12.19025 C-0.000615384615,13.189 0.799384615,14.00025 1.78030769,14.00025 L13.4196923,14.00025 C14.4043077,14.00025 15.2030769,13.189 15.2030769,12.19025 L15.2030769,5.35775 L15.2030769,2.00275 C15.2030769,1.004 14.4043077,0.194 13.4196923,0.194 L13.4196923,0.194 Z" id="Fill-7" fill="#9B9B9B" mask="url(#mask-6)"></path>
                </g>
            </g>
        </g>
    </g>
</svg>