<?xml version="1.0" encoding="UTF-8" standalone="no"?>
<svg width="30px" height="30px" viewBox="0 0 30 30" version="1.1" xmlns="http://www.w3.org/2000/svg" xmlns:xlink="http://www.w3.org/1999/xlink">
    <!-- Generator: Sketch 39.1 (31720) - http://www.bohemiancoding.com/sketch -->
    <title>组织架构</title>
    <desc>Created with Sketch.</desc>
    <defs></defs>
    <g id="Page-1" stroke="none" stroke-width="1" fill="none" fill-rule="evenodd">
        <g id="组织架构" fill="#727E8C">
            <path d="M22.249,18.814 C22.249,17.677 21.323,16.751 20.184,16.751 C19.046,16.751 18.12,17.677 18.12,18.814 C18.12,19.951 19.046,20.876 20.184,20.876 C21.323,20.876 22.249,19.951 22.249,18.814 L22.249,18.814 Z M24,18.14 L24,19.335 L23.423,19.55 L23.059,20.425 L23.359,21.002 L22.525,21.942 L21.948,21.622 L21.05,21.942 L20.878,22.626 L19.639,22.626 L19.489,22.07 L18.549,21.685 L17.993,21.962 L17.116,21.172 L17.395,20.639 L16.988,19.72 L16.368,19.507 L16.368,18.353 L16.967,18.119 L17.287,17.2 L17.031,16.603 L17.8,15.749 L18.42,16.027 L19.339,15.642 L19.489,15.001 L20.687,15.001 L20.942,15.599 L21.798,15.962 L22.375,15.642 L23.251,16.517 L22.974,17.094 L23.359,17.949 L24,18.14 Z M20.184,17.752 C19.598,17.752 19.121,18.228 19.121,18.814 C19.121,19.399 19.598,19.876 20.184,19.876 C20.77,19.876 21.248,19.399 21.248,18.814 C21.248,18.228 20.77,17.752 20.184,17.752 L20.184,17.752 Z M22.562,22.99 L21.741,22.533 L21.556,22.599 L21.337,23.476 L18.878,23.476 L18.672,22.71 L18.404,22.601 L17.683,22.96 L15.955,21.403 L16.341,20.662 L16.218,20.384 L15.388,20.098 L15.388,17.848 L16.154,17.545 L16.261,17.24 L15.925,16.456 L16.328,16.007 L11.243,16.007 C7.773,16.007 6,17.722 6,21.118 L6,24.001 L22.611,24.001 L22.611,22.935 L22.562,22.99 Z M9.234,10.501 C9.234,8.014 11.251,6 13.74,6 C16.228,6 18.246,8.014 18.246,10.501 C18.246,12.987 16.228,15.004 13.74,15.004 C11.251,15.004 9.234,12.987 9.234,10.501 L9.234,10.501 Z" id="Fill-1"></path>
        </g>
    </g>
</svg>