<?xml version="1.0" encoding="UTF-8" standalone="no"?>
<svg width="30px" height="30px" viewBox="0 0 30 30" version="1.1" xmlns="http://www.w3.org/2000/svg" xmlns:xlink="http://www.w3.org/1999/xlink">
    <!-- Generator: Sketch 39.1 (31720) - http://www.bohemiancoding.com/sketch -->
    <title>统计分析</title>
    <desc>Created with Sketch.</desc>
    <defs></defs>
    <g id="Page-1" stroke="none" stroke-width="1" fill="none" fill-rule="evenodd">
        <g id="统计分析" fill="#727E8C">
            <path d="M15.509,6 L15.509,13.515 L20.829,8.2 C19.467,6.84 17.586,6 15.509,6 L15.509,6 Z M23.002,14.916 C23.002,13.168 22.371,11.519 21.215,10.221 L16.469,14.926 L21.171,19.658 C22.356,18.355 23.002,16.69 23.002,14.916 L23.002,14.916 Z M24,14.916 C24,17.128 23.12,19.194 21.521,20.731 L21.167,21.071 L15.056,14.921 L21.223,8.806 L21.573,9.15 C23.139,10.685 24,12.733 24,14.916 L24,14.916 Z M14.135,15.977 L19.883,21.596 C18.412,23.08 16.373,24 14.117,24 C9.636,24 6,20.37 6,15.893 C6,11.416 9.636,7.786 14.123,7.786 L14.135,7.786 L14.135,15.977 Z" id="Fill-1"></path>
        </g>
    </g>
</svg>