<?xml version="1.0" encoding="UTF-8" standalone="no"?>
<svg width="30px" height="30px" viewBox="0 0 30 30" version="1.1" xmlns="http://www.w3.org/2000/svg" xmlns:xlink="http://www.w3.org/1999/xlink">
    <!-- Generator: Sketch 39.1 (31720) - http://www.bohemiancoding.com/sketch -->
    <title>订单管理</title>
    <desc>Created with Sketch.</desc>
    <defs></defs>
    <g id="Page-1" stroke="none" stroke-width="1" fill="none" fill-rule="evenodd">
        <g id="订单管理" fill="#707F88">
            <path d="M21.4,8.01251197 L20.3333333,8.01251197 L18.7834667,8.01251197 L18.2,8.01251197 L18.2,10.0162077 L10.7333333,10.0162077 L10.7333333,8.01251197 L10.1498667,8.01251197 L8.6,8.01251197 L7.53333333,8.01251197 C7.23893333,8.01251197 7,8.23692589 7,8.51343589 L7,9.51528375 L7,10.224592 L7,20.8281497 L7,21.537458 L7,22.5393058 C7,22.8158158 7.23893333,23.0402298 7.53333333,23.0402298 L8.6,23.0402298 L10.1498667,23.0402298 L14.7642667,23.0402298 C14.0858667,22.2307367 13.6634667,21.2218759 13.6634667,20.1118285 C13.6634667,19.8493443 13.7018667,19.5978805 13.7456,19.3474186 L10.1754667,19.3474186 C9.58666667,19.3474186 9.1088,18.8985907 9.1088,18.3455707 C9.1088,17.7925507 9.58666667,17.3437229 10.1754667,17.3437229 L14.6224,17.3437229 C15.2122667,16.5733019 16.0389333,15.9852172 17.0032,15.6546074 L10.1754667,15.6546074 C9.58666667,15.6546074 9.1088,15.2067814 9.1088,14.6527595 C9.1088,14.0997395 9.58666667,13.6509117 10.1754667,13.6509117 L18.7088,13.6509117 C19.2976,13.6509117 19.7754667,14.0997395 19.7754667,14.6527595 C19.7754667,14.9603268 19.6197333,15.2258165 19.3872,15.4091547 C20.3472,15.5313801 21.2197333,15.9000601 21.9333333,16.4520783 L21.9333333,10.224592 L21.9333333,9.51528375 L21.9333333,8.51343589 C21.9333333,8.23692589 21.6944,8.01251197 21.4,8.01251197 L21.4,8.01251197 Z M21.7765333,18.9536924 L21.0224,18.2453859 L18.3802667,20.7239575 L16.872,19.3073447 L16.1178667,20.0156511 L18.3802667,22.1415722 L18.3813333,22.1415722 L21.7765333,18.9536924 Z M23,20.19398 C23,22.2958568 21.1856,24 18.9466667,24 C16.7088,24 14.8933333,22.2958568 14.8933333,20.19398 C14.8933333,18.0911014 16.7088,16.3859563 18.9466667,16.3859563 C21.1856,16.3859563 23,18.0911014 23,20.19398 L23,20.19398 Z M17.1333333,9.00534319 L11.8,9.00534319 L11.8,7.00164748 L12.8666667,7.00164748 C12.8666667,6.44862747 13.3445333,5.99979963 13.9333333,5.99979963 L15,5.99979963 C15.5888,5.99979963 16.0666667,6.44862747 16.0666667,7.00164748 L17.1333333,7.00164748 L17.1333333,9.00534319 Z" id="Page-1"></path>
        </g>
    </g>
</svg>