<?xml version="1.0" encoding="UTF-8" standalone="no"?>
<svg width="30px" height="30px" viewBox="0 0 30 30" version="1.1" xmlns="http://www.w3.org/2000/svg" xmlns:xlink="http://www.w3.org/1999/xlink">
    <!-- Generator: Sketch 39.1 (31720) - http://www.bohemiancoding.com/sketch -->
    <title>设置</title>
    <desc>Created with Sketch.</desc>
    <defs></defs>
    <g id="Page-1" stroke="none" stroke-width="1" fill="none" fill-rule="evenodd">
        <g id="设置" fill="#737F8C">
            <path d="M14.836,11.113 C12.662,11.113 10.894,12.882 10.894,15.056 C10.894,17.23 12.663,19 14.836,19 C17.009,19 18.778,17.231 18.778,15.056 C18.778,12.882 17.01,11.113 14.836,11.113 L14.836,11.113 L14.836,11.113 L14.836,11.113 L14.836,11.113 L14.836,11.113 Z M14.836,17.948 C13.242,17.948 11.945,16.65 11.945,15.056 C11.945,13.461 13.242,12.165 14.836,12.165 C16.431,12.165 17.727,13.461 17.727,15.056 C17.727,16.652 16.431,17.948 14.836,17.948 L14.836,17.948 L14.836,17.948 L14.836,17.948 L14.836,17.948 L14.836,17.948 Z M23.522,13.2 C23.149,13.166 22.017,12.923 21.72,12.275 C21.461,11.712 21.89,10.915 22.293,10.348 L22.543,9.996 L20.084,7.404 L19.71,7.684 C19.372,7.937 18.269,8.592 17.64,8.293 C17.135,8.053 16.997,7.189 16.97,6.505 L16.95,6 L15,6 L13.049,6 L13.029,6.505 C13.002,7.188 12.864,8.052 12.359,8.293 C11.732,8.592 10.627,7.937 10.289,7.684 L9.914,7.404 L7.455,9.996 L7.705,10.348 C8.109,10.915 8.537,11.71 8.28,12.274 C7.984,12.921 6.877,13.161 6.476,13.2 L6,13.243 L6,14.824 L6,14.824 L6,16.759 L6.479,16.802 C6.88,16.841 7.988,17.081 8.283,17.728 C8.54,18.291 8.112,19.086 7.709,19.653 L7.458,20.006 L9.917,22.598 L10.293,22.316 C10.63,22.063 11.735,21.408 12.363,21.707 C12.867,21.947 13.006,22.811 13.033,23.495 L13.053,24.001 L15,24.001 L16.95,24.001 L16.97,23.495 C16.997,22.812 17.136,21.948 17.64,21.707 C18.269,21.408 19.372,22.063 19.71,22.316 L20.084,22.597 L22.543,20.005 L22.293,19.653 C21.888,19.086 21.46,18.289 21.718,17.726 C22.015,17.078 23.148,16.836 23.521,16.801 L24,16.757 L24,14.838 L24,14.838 L24,13.24 L23.522,13.2 L23.522,13.2 L23.522,13.2 L23.522,13.2 L23.522,13.2 L23.522,13.2 Z M22.949,14.825 L22.949,14.825 L22.949,15.832 C22.301,15.97 21.2,16.336 20.763,17.29 C20.428,18.023 20.573,18.9 21.195,19.903 L19.949,21.216 C19.342,20.848 18.171,20.295 17.191,20.758 C16.502,21.085 16.088,21.82 15.958,22.95 L15,22.95 L14.042,22.95 C13.912,21.821 13.498,21.085 12.809,20.758 C11.83,20.295 10.658,20.847 10.051,21.216 L8.805,19.903 C9.427,18.9 9.573,18.023 9.236,17.29 C8.799,16.336 7.698,15.97 7.05,15.832 L7.05,14.842 L7.05,14.842 L7.05,14.173 C7.698,14.035 8.799,13.669 9.236,12.715 C9.571,11.982 9.426,11.105 8.804,10.101 L10.05,8.788 C10.657,9.156 11.828,9.709 12.808,9.246 C13.497,8.919 13.911,8.184 14.041,7.055 L15,7.055 L15.958,7.055 C16.088,8.184 16.502,8.92 17.191,9.246 C18.171,9.71 19.342,9.158 19.949,8.788 L21.195,10.101 C20.573,11.104 20.428,11.982 20.763,12.715 C21.2,13.668 22.301,14.035 22.949,14.173 L22.949,14.825 L22.949,14.825 L22.949,14.825 L22.949,14.825 L22.949,14.825 L22.949,14.825 L22.949,14.825 Z" id="Shape"></path>
        </g>
    </g>
</svg>