<?xml version="1.0" encoding="UTF-8" standalone="no"?>
<svg width="30px" height="30px" viewBox="0 0 30 30" version="1.1" xmlns="http://www.w3.org/2000/svg" xmlns:xlink="http://www.w3.org/1999/xlink">
    <!-- Generator: Sketch 39.1 (31720) - http://www.bohemiancoding.com/sketch -->
    <title>详情</title>
    <desc>Created with Sketch.</desc>
    <defs></defs>
    <g id="Page-1" stroke="none" stroke-width="1" fill="none" fill-rule="evenodd">
        <g id="详情" fill="#229FFF">
            <path d="M15.0098169,13.9333678 C14.4202495,13.9333678 13.9418335,14.4112005 13.9418335,15.0000488 C13.9418335,15.5887995 14.4202495,16.0667103 15.0098169,16.0667103 C15.5992865,16.0667103 16.0777808,15.5887995 16.0777808,15.0000488 C16.0777808,14.4112005 15.5992865,13.9333678 15.0098169,13.9333678 L15.0098169,13.9333678 Z M11.8059058,13.9333678 C11.2163384,13.9333678 10.7379224,14.4112005 10.7379224,15.0000488 C10.7379224,15.5887995 11.2163384,16.0667103 11.8059058,16.0667103 C12.3953754,16.0667103 12.8738696,15.5887995 12.8738696,15.0000488 C12.8738696,14.4112005 12.3953754,13.9333678 11.8059058,13.9333678 L11.8059058,13.9333678 Z M18.2137085,13.9333678 C17.6241607,13.9333678 17.1457446,14.4112005 17.1457446,15.0000488 C17.1457446,15.5887995 17.6241607,16.0667103 18.2137085,16.0667103 C18.8031976,16.0667103 19.2816919,15.5887995 19.2816919,15.0000488 C19.2816919,14.4112005 18.8031976,13.9333678 18.2137085,13.9333678 L18.2137085,13.9333678 Z M15.0098169,7 C10.5862333,7 7,10.5818598 7,15.0000488 C7,19.4181597 10.5862333,23 15.0098169,23 C19.4333223,23 23.019536,19.4181597 23.019536,15.0000488 C23.019536,10.5818598 19.4333223,7 15.0098169,7 L15.0098169,7 Z M15.0098169,21.9333385 C11.1757811,21.9333385 8.06796385,18.8293113 8.06796385,15.0000488 C8.06796385,11.1706887 11.1757811,8.06666146 15.0098169,8.06666146 C18.8437549,8.06666146 21.9515722,11.1706887 21.9515722,15.0000488 C21.9515722,18.8293113 18.8437549,21.9333385 15.0098169,21.9333385 L15.0098169,21.9333385 Z" id="iconfont-gengduocaozuo-copy"></path>
        </g>
    </g>
</svg>