<?xml version="1.0" encoding="UTF-8" standalone="no"?>
<svg width="30px" height="30px" viewBox="0 0 30 30" version="1.1" xmlns="http://www.w3.org/2000/svg" xmlns:xlink="http://www.w3.org/1999/xlink">
    <!-- Generator: Sketch 39.1 (31720) - http://www.bohemiancoding.com/sketch -->
    <title>财务管理</title>
    <desc>Created with Sketch.</desc>
    <defs></defs>
    <g id="Page-1" stroke="none" stroke-width="1" fill="none" fill-rule="evenodd">
        <g id="财务管理" fill="#717F88">
            <path d="M15,6 C10.6369231,8.329 7,8.171 7,8.171 L7,12.987 C7.80820513,21.987 15,24 15,24 C15,24 22.1917949,21.987 23,12.987 L23,8.171 C23,8.171 19.3630769,8.329 15,6 L15,6 Z M18.5333333,13.816 L18.5333333,15.217 L15.8892308,15.217 L15.8892308,16.235 L18.5333333,16.235 L18.5333333,17.635 L15.8892308,17.635 L15.8892308,18.97 L14.1158974,18.97 L14.1158974,17.635 L11.4666667,17.635 L11.4666667,16.235 L14.1158974,16.235 L14.1158974,15.217 L11.4666667,15.217 L11.4666667,13.816 L13.3497436,13.816 L11.4666667,9.97 L13.4482051,9.97 L15,13.141 L16.5517949,9.97 L18.5333333,9.97 L16.6502564,13.816 L18.5333333,13.816 L18.5333333,13.816 Z" id="Shape-Copy-6"></path>
        </g>
    </g>
</svg>