<?xml version="1.0" encoding="UTF-8" standalone="no"?>
<svg width="30px" height="30px" viewBox="0 0 30 30" version="1.1" xmlns="http://www.w3.org/2000/svg" xmlns:xlink="http://www.w3.org/1999/xlink">
    <!-- Generator: Sketch 39.1 (31720) - http://www.bohemiancoding.com/sketch -->
    <title>扶뒬못</title>
    <desc>Created with Sketch.</desc>
    <defs></defs>
    <g id="Page-1" stroke="none" stroke-width="1" fill="none" fill-rule="evenodd">
        <g id="扶뒬못" fill="#717F88">
            <path d="M24,13.611 L24,13.647 L22.836,14.811 L15.001,8.188 L7.178,14.81 L6,13.631 L6,13.612 L15.001,6 L18.458,8.923 L18.458,7.297 C18.458,7.021 18.682,6.797 18.958,6.797 L19.875,6.797 C20.151,6.797 20.375,7.021 20.375,7.297 L20.375,10.505 C20.375,10.517 20.369,10.527 20.368,10.538 L24,13.611 L24,13.611 Z M8.292,14.81 L8.292,24 L13,24 L13,18.506 C13,18.23 13.224,18.006 13.5,18.006 L16.5,18.006 C16.776,18.006 17,18.23 17,18.506 L17,24 L21.708,24 L21.708,14.81 L15,9.089 L8.292,14.81 L8.292,14.81 Z" id="Shape"></path>
        </g>
    </g>
</svg>